HIERARCHY
ROOT hip
{
  OFFSET 0 0 0
  CHANNELS 6 Xposition Yposition Zposition Zrotation Yrotation Xrotation
  JOINT abdomen
  {
    OFFSET 0 20.6881 -0.73152
    CHANNELS 3 Zrotation Xrotation Yrotation
    JOINT chest
    {
      OFFSET 0 11.7043 -0.48768
      CHANNELS 3 Zrotation Xrotation Yrotation
      JOINT neck
      {
        OFFSET 0 22.1894 -2.19456
        CHANNELS 3 Zrotation Xrotation Yrotation
        JOINT head
        {
          OFFSET -0.24384 7.07133 1.2192
          CHANNELS 3 Zrotation Xrotation Yrotation
          JOINT leftEye
          {
            OFFSET 4.14528 8.04674 8.04672
            CHANNELS 3 Zrotation Xrotation Yrotation
            End Site
            {
              OFFSET 1 0 0
            }
          }
          JOINT rightEye
          {
            OFFSET -3.6576 8.04674 8.04672
            CHANNELS 3 Zrotation Xrotation Yrotation
            End Site
            {
              OFFSET 1 0 0
            }
          }
        }
      }
      JOINT rCollar
      {
        OFFSET -2.68224 19.2634 -4.8768
        CHANNELS 3 Zrotation Xrotation Yrotation
        JOINT rShldr
        {
          OFFSET -8.77824 -1.95073 1.46304
          CHANNELS 3 Zrotation Xrotation Yrotation
          JOINT rForeArm
          {
            OFFSET -28.1742 -1.7115 0.48768
            CHANNELS 3 Zrotation Xrotation Yrotation
            JOINT rHand
            {
              OFFSET -22.5879 0.773209 7.07136
              CHANNELS 3 Zrotation Xrotation Yrotation
              JOINT rThumb1
              {
                OFFSET -1.2192 -0.487915 3.41376
                CHANNELS 3 Zrotation Xrotation Yrotation
                JOINT rThumb2
                {
                  OFFSET -3.37035 -0.52449 3.41376
                  CHANNELS 3 Zrotation Xrotation Yrotation
                  End Site
                  {
                    OFFSET -1.78271 -1.18214 1.43049
                  }
                }
              }
              JOINT rIndex1
              {
                OFFSET -7.75947 0.938293 5.60832
                CHANNELS 3 Zrotation Xrotation Yrotation
                JOINT rIndex2
                {
                  OFFSET -2.54057 -0.884171 1.56538
                  CHANNELS 3 Zrotation Xrotation Yrotation
                  End Site
                  {
                    OFFSET -1.62519 -0.234802 1.16502
                  }
                }
              }
              JOINT rMid1
              {
                OFFSET -8.24714 1.18213 3.41376
                CHANNELS 3 Zrotation Xrotation Yrotation
                JOINT rMid2
                {
                  OFFSET -3.10165 -0.590103 1.0647
                  CHANNELS 3 Zrotation Xrotation Yrotation
                  End Site
                  {
                    OFFSET -2.48547 -0.328903 0.83742
                  }
                }
              }
              JOINT rRing1
              {
                OFFSET -8.82822 0.546677 1.51678
                CHANNELS 3 Zrotation Xrotation Yrotation
                JOINT rRing2
                {
                  OFFSET -2.60934 -0.819778 -0.0198488
                  CHANNELS 3 Zrotation Xrotation Yrotation
                  End Site
                  {
                    OFFSET -2.33842 -0.294052 0.168128
                  }
                }
              }
              JOINT rPinky1
              {
                OFFSET -8.27202 -0.0477905 -0.4584
                CHANNELS 3 Zrotation Xrotation Yrotation
                JOINT rPinky2
                {
                  OFFSET -1.82734 -0.647385 -0.700984
                  CHANNELS 3 Zrotation Xrotation Yrotation
                  End Site
                  {
                    OFFSET -1.69225 -0.51767 -0.607171
                  }
                }
              }
            }
          }
        }
      }
      JOINT lCollar
      {
        OFFSET 2.68224 19.2634 -4.8768
        CHANNELS 3 Zrotation Xrotation Yrotation
        JOINT lShldr
        {
          OFFSET 8.77824 -1.95073 1.46304
          CHANNELS 3 Zrotation Xrotation Yrotation
          JOINT lForeArm
          {
            OFFSET 28.1742 -1.7115 0.48768
            CHANNELS 3 Zrotation Xrotation Yrotation
            JOINT lHand
            {
              OFFSET 22.5879 0.773209 7.07136
              CHANNELS 3 Zrotation Xrotation Yrotation
              JOINT lThumb1
              {
                OFFSET 1.2192 -0.487915 3.41376
                CHANNELS 3 Zrotation Xrotation Yrotation
                JOINT lThumb2
                {
                  OFFSET 3.37035 -0.52449 3.41376
                  CHANNELS 3 Zrotation Xrotation Yrotation
                  End Site
                  {
                    OFFSET 1.78271 -1.18214 1.43049
                  }
                }
              }
              JOINT lIndex1
              {
                OFFSET 7.75947 0.938293 5.60832
                CHANNELS 3 Zrotation Xrotation Yrotation
                JOINT lIndex2
                {
                  OFFSET 2.54057 -0.884171 1.56538
                  CHANNELS 3 Zrotation Xrotation Yrotation
                  End Site
                  {
                    OFFSET 1.62519 -0.234802 1.16502
                  }
                }
              }
              JOINT lMid1
              {
                OFFSET 8.24714 1.18213 3.41376
                CHANNELS 3 Zrotation Xrotation Yrotation
                JOINT lMid2
                {
                  OFFSET 3.10165 -0.590103 1.0647
                  CHANNELS 3 Zrotation Xrotation Yrotation
                  End Site
                  {
                    OFFSET 2.48547 -0.328903 0.83742
                  }
                }
              }
              JOINT lRing1
              {
                OFFSET 8.82822 0.546677 1.51678
                CHANNELS 3 Zrotation Xrotation Yrotation
                JOINT lRing2
                {
                  OFFSET 2.60934 -0.819778 -0.0198488
                  CHANNELS 3 Zrotation Xrotation Yrotation
                  End Site
                  {
                    OFFSET 2.33842 -0.294052 0.168128
                  }
                }
              }
              JOINT lPinky1
              {
                OFFSET 8.27202 -0.0477905 -0.4584
                CHANNELS 3 Zrotation Xrotation Yrotation
                JOINT lPinky2
                {
                  OFFSET 1.82734 -0.647385 -0.700984
                  CHANNELS 3 Zrotation Xrotation Yrotation
                  End Site
                  {
                    OFFSET 1.69225 -0.51767 -0.607171
                  }
                }
              }
            }
          }
        }
      }
    }
  }
  JOINT rButtock
  {
    OFFSET -8.77824 4.35084 1.2192
    CHANNELS 3 Zrotation Xrotation Yrotation
    JOINT rThigh
    {
      OFFSET 0 -1.70687 -2.19456
      CHANNELS 3 Zrotation Xrotation Yrotation
      JOINT rShin
      {
        OFFSET 0 -36.8199 0.73152
        CHANNELS 3 Zrotation Xrotation Yrotation
        JOINT rFoot
        {
          OFFSET 0.73152 -45.1104 -5.12064
          CHANNELS 3 Zrotation Xrotation Yrotation
          End Site
          {
            OFFSET -1.1221 -3.69964 12.103
          }
        }
      }
    }
  }
  JOINT lButtock
  {
    OFFSET 8.77824 4.35084 1.2192
    CHANNELS 3 Zrotation Xrotation Yrotation
    JOINT lThigh
    {
      OFFSET 0 -1.70687 -2.19456
      CHANNELS 3 Zrotation Xrotation Yrotation
      JOINT lShin
      {
        OFFSET 0 -36.8199 0.73152
        CHANNELS 3 Zrotation Xrotation Yrotation
        JOINT lFoot
        {
          OFFSET -0.73152 -45.1104 -5.12064
          CHANNELS 3 Zrotation Xrotation Yrotation
          End Site
          {
            OFFSET 1.1221 -3.69964 12.103
          }
        }
      }
    }
  }
}
MOTION
Frames:	7
Frame Time:	0.00833333
57.3785 63.8038 132.93 -180.497 -0.9127 -135.143 -4.29055 -9.53445 -2.49275 2.41951 4.02489 -0.82354 6.80057 9.02027 -8.27837 -23.9185 -44.3072 -25.9221 -0.0 0.0 0.0 -0.0 0.0 0.0 -3.00521e-15 -6.34129e-14 -1.16537e-14 79.322 8.26205 -18.7245 -13.5238 -6.57627 24.6014 -0.0171646 3.72302 0.523991 -4.44809e-10 -6.83924e-10 2.84877e-09 -7.56665e-10 -1.17039e-09 4.92905e-09 -4.44808e-10 -6.83927e-10 2.84876e-09 7.73091 5.47488 0.417314 -4.44813e-10 -6.83927e-10 2.84878e-09 2.90554 0.965183 0.102902 -4.44809e-10 -6.8393e-10 2.84877e-09 10.2786 0.731801 0.0259123 -4.44822e-10 -6.83927e-10 2.84878e-09 2.22167 -0.733487 -0.20892 -2.96165e-15 -6.34111e-14 -1.20078e-14 -72.3894 36.578 16.4255 15.9151 -8.60854 -29.4937 0.000255261 0.479296 -0.0673625 2.38514e-09 2.40621e-10 -9.71685e-10 4.11979e-09 4.19077e-10 -1.68781e-09 2.38514e-09 2.40617e-10 -9.7168e-10 -7.73091 5.47488 -0.417314 2.38514e-09 2.40617e-10 -9.71685e-10 -2.90554 0.965183 -0.102902 2.38513e-09 2.40617e-10 -9.71687e-10 -10.2786 0.731801 -0.0259123 2.38515e-09 2.40619e-10 -9.71694e-10 -2.22167 -0.733487 0.20892 -2.03217e-16 0.0 -3.88251e-19 132.773 -83.0677 134.018 -2.67477 74.8956 3.90743 -9.40518 -31.7165 -14.3314 2.03217e-16 0.0 3.88251e-19 -155.593 -83.7939 -158.547 3.66103 77.4277 -4.42561 4.03208 -20.6791 7.81005
57.3962 62.8173 133.0 -180.366 -0.6529 -135.081 -4.33464 -9.04151 -2.29824 2.48822 3.68199 -0.764002 6.97516 9.24723 -8.19684 -24.7587 -44.3787 -26.0456 -0.0 0.0 0.0 -0.0 0.0 0.0 1.56758e-14 4.35591e-14 2.15402e-15 79.4113 8.29612 -18.8705 -13.5638 -6.60766 24.6808 -0.0158845 3.58823 0.504964 -2.267e-10 -4.9266e-10 -6.53485e-10 -3.93984e-10 -8.55316e-10 -1.12904e-09 -2.267e-10 -4.92663e-10 -6.53492e-10 7.73091 5.47488 0.417314 -2.26705e-10 -4.92665e-10 -6.53477e-10 2.90554 0.965183 0.102902 -2.26701e-10 -4.92667e-10 -6.53483e-10 10.2786 0.731801 0.0259123 -2.26714e-10 -4.92664e-10 -6.53478e-10 2.22167 -0.733487 -0.20892 1.56668e-14 4.35584e-14 1.83565e-15 -72.5331 36.0955 16.4151 15.9797 -8.66823 -29.6298 0.000160476 0.284897 -0.0400413 -3.55794e-10 5.13075e-11 5.80247e-10 -6.13187e-10 8.7274e-11 1.00598e-09 -3.55798e-10 5.13035e-11 5.80254e-10 -7.73091 5.47488 -0.417314 -3.55794e-10 5.1304e-11 5.80249e-10 -2.90554 0.965183 -0.102902 -3.55801e-10 5.13042e-11 5.80246e-10 -10.2786 0.731801 -0.0259123 -3.5579e-10 5.13059e-11 5.80241e-10 -2.22167 -0.733487 0.20892 -2.03217e-16 0.0 -3.88251e-19 138.96 -81.8061 140.008 -3.18927 76.8299 4.47273 -9.9261 -32.0263 -14.9765 2.03217e-16 0.0 3.88251e-19 -161.39 -82.6144 -164.05 4.3888 79.1543 -5.17759 4.26646 -21.2053 8.12196
57.4211 61.851 133.055 -180.21 -0.366 -135.069 -4.3731 -8.46749 -2.10711 2.49603 3.32835 -0.700877 7.08822 9.45562 -8.15747 -25.2935 -44.5323 -26.169 -0.0 0.0 0.0 -0.0 0.0 0.0 2.67599e-14 1.08139e-13 7.7526e-15 79.5643 8.44989 -18.8978 -13.613 -6.64644 24.7787 -0.0144839 3.43391 0.483189 -7.17947e-11 -3.51938e-10 -2.69911e-09 -1.34623e-10 -6.21111e-10 -4.66758e-09 -7.17935e-11 -3.5194e-10 -2.69912e-09 7.73091 5.47488 0.417314 -7.17992e-11 -3.51942e-10 -2.6991e-09 2.90554 0.965183 0.102902 -7.17953e-11 -3.51944e-10 -2.69911e-09 10.2786 0.731801 0.0259123 -7.18076e-11 -3.51941e-10 -2.6991e-09 2.22167 -0.733487 -0.20892 2.67149e-14 1.08138e-13 7.45443e-15 -72.5391 35.4892 16.1932 15.9975 -8.68492 -29.6674 7.75319e-05 0.251429 -0.0353363 -2.00607e-09 -5.28417e-11 1.43294e-09 -3.46311e-09 -9.53149e-11 2.48635e-09 -2.00608e-09 -5.28453e-11 1.43294e-09 -7.73091 5.47488 -0.417314 -2.00607e-09 -5.28445e-11 1.43294e-09 -2.90554 0.965183 -0.102902 -2.00608e-09 -5.28448e-11 1.43294e-09 -10.2786 0.731801 -0.0259123 -2.00607e-09 -5.28433e-11 1.43293e-09 -2.22167 -0.733487 0.20892 -2.03217e-16 0.0 -3.88251e-19 143.033 -80.6718 143.877 -3.81814 78.5934 5.14678 -10.3779 -32.3587 -15.5027 2.03217e-16 0.0 3.88251e-19 -165.132 -81.4898 -167.533 5.37236 80.8282 -6.17621 4.40552 -21.6695 8.24842
57.4395 60.9267 133.308 -180.124 -0.1647 -134.576 -4.4032 -7.7179 -1.89811 2.42103 2.94496 -0.625502 7.11512 9.63741 -8.1859 -25.3842 -44.8245 -26.3114 -0.0 0.0 0.0 -0.0 0.0 0.0 2.54308e-14 1.07044e-13 -1.71762e-15 79.8141 8.77052 -18.8189 -13.6853 -6.70354 24.9227 -0.0126809 3.22242 0.45336 2.76095e-12 -2.80882e-10 -2.3652e-09 -4.47479e-12 -4.96824e-10 -4.09028e-09 2.76336e-12 -2.80884e-10 -2.36521e-09 7.73091 5.47488 0.417314 2.75637e-12 -2.80886e-10 -2.3652e-09 2.90554 0.965183 0.102902 2.76259e-12 -2.80888e-10 -2.3652e-09 10.2786 0.731801 0.0259123 2.74954e-12 -2.80885e-10 -2.36519e-09 2.22167 -0.733487 -0.20892 2.53766e-14 1.07046e-13 -2.02124e-15 -72.3954 34.6992 15.7429 15.9562 -8.64656 -29.5802 6.14496e-06 0.450326 -0.063288 -1.96289e-09 -1.6837e-11 1.09142e-09 -3.38977e-09 -3.22534e-11 1.89483e-09 -1.96289e-09 -1.68397e-11 1.09143e-09 -7.73091 5.47488 -0.417314 -1.96289e-09 -1.6839e-11 1.09142e-09 -2.90554 0.965183 -0.102902 -1.9629e-09 -1.68396e-11 1.09142e-09 -10.2786 0.731801 -0.0259123 -1.96288e-09 -1.68385e-11 1.09142e-09 -2.22167 -0.733487 0.20892 -2.03217e-16 0.0 -3.88251e-19 145.411 -79.8241 146.041 -4.52729 80.0886 5.89429 -10.7398 -32.726 -15.8797 2.03217e-16 0.0 3.88251e-19 -167.534 -80.5389 -169.722 6.73669 82.4348 -7.54522 4.42347 -22.0376 8.15463
57.4141 60.0576 132.755 -179.765 0.3915 -136.352 -4.43522 -6.83772 -1.67325 2.29342 2.524 -0.540274 7.22164 9.74316 -8.24338 -25.5037 -45.0816 -26.5409 -0.0 0.0 0.0 -0.0 0.0 0.0 1.59612e-14 6.71853e-14 -2.04872e-14 80.1279 9.2056 -18.6587 -13.77 -6.77066 25.0919 -0.010796 2.98131 0.419373 4.71795e-11 -2.30171e-10 -6.78419e-10 7.90386e-11 -4.01738e-10 -1.17305e-09 4.71836e-11 -2.30175e-10 -6.78428e-10 7.73091 5.47488 0.417314 4.71749e-11 -2.30175e-10 -6.78418e-10 2.90554 0.965183 0.102902 4.71849e-11 -2.30178e-10 -6.78417e-10 10.2786 0.731801 0.0259123 4.71704e-11 -2.30175e-10 -6.7841e-10 2.22167 -0.733487 -0.20892 1.59137e-14 6.71915e-14 -2.08103e-14 -72.1806 33.7727 15.1562 15.8806 -8.57644 -29.4215 0.000432659 0.809774 -0.11381 -9.70961e-10 9.60154e-11 4.63868e-11 -1.67888e-09 1.6562e-10 8.28493e-11 -9.70963e-10 9.60141e-11 4.63982e-11 -7.73091 5.47488 -0.417314 -9.70961e-10 9.60144e-11 4.63866e-11 -2.90554 0.965183 -0.102902 -9.70966e-10 9.60135e-11 4.63859e-11 -10.2786 0.731801 -0.0259123 -9.70955e-10 9.60142e-11 4.63785e-11 -2.22167 -0.733487 0.20892 -2.03217e-16 0.0 -3.88251e-19 146.819 -79.1979 147.228 -5.3418 81.3925 6.7434 -11.0507 -33.1044 -16.1741 2.03217e-16 0.0 3.88251e-19 -169.188 -79.745 -171.191 8.72415 83.9685 -9.53006 4.35109 -22.3501 7.89701
57.3805 59.1715 132.898 -179.89 0.4662 -136.121 -4.47037 -6.00582 -1.47925 2.14033 2.11411 -0.462896 7.34035 9.82784 -8.30139 -25.6118 -45.3059 -26.7665 -0.0 0.0 0.0 -0.0 0.0 0.0 5.98328e-15 2.07665e-14 -3.74492e-14 80.4489 9.69039 -18.3715 -13.8437 -6.82922 25.2398 -0.00937734 2.77465 0.390256 6.23828e-11 -1.93763e-10 1.05471e-09 1.12239e-10 -3.31025e-10 1.82438e-09 6.23883e-11 -1.93767e-10 1.0547e-09 7.73091 5.47488 0.417314 6.23782e-11 -1.93767e-10 1.05471e-09 2.90554 0.965183 0.102902 6.23917e-11 -1.93769e-10 1.05471e-09 10.2786 0.731801 0.0259123 6.23759e-11 -1.93767e-10 1.05472e-09 2.22167 -0.733487 -0.20892 5.94335e-15 2.07773e-14 -3.77916e-14 -71.9074 32.7968 14.4315 15.78 -8.48395 -29.2105 0.00160859 1.2229 -0.171892 1.71939e-10 2.09468e-10 -9.56519e-10 2.93375e-10 3.64454e-10 -1.65662e-09 1.71937e-10 2.09468e-10 -9.56507e-10 -7.73091 5.47488 -0.417314 1.7194e-10 2.09468e-10 -9.56522e-10 -2.90554 0.965183 -0.102902 1.71935e-10 2.09467e-10 -9.56521e-10 -10.2786 0.731801 -0.0259123 1.71946e-10 2.09467e-10 -9.56531e-10 -2.22167 -0.733487 0.20892 -2.03217e-16 0.0 -3.88251e-19 148.287 -78.5853 148.486 -6.41728 82.6659 7.8504 -11.3207 -33.4901 -16.4014 2.03217e-16 0.0 3.88251e-19 -170.362 -78.9325 -172.192 11.9714 85.4562 -12.768 4.20596 -22.6555 7.50449
57.3315 58.2632 133.01 -179.941 0.4592 -135.776 -4.50491 -5.40128 -1.36198 1.98813 1.76392 -0.411026 7.4038 9.94646 -8.3315 -25.666 -45.5012 -26.8956 -0.0 0.0 0.0 -0.0 0.0 0.0 3.12959e-15 -7.95915e-18 -4.14963e-14 80.7197 10.1601 -17.9105 -13.8836 -6.86088 25.3201 -0.00872814 2.66648 0.375022 4.92922e-11 -1.65615e-10 1.52765e-09 9.14473e-11 -2.79857e-10 2.64229e-09 4.92986e-11 -1.65619e-10 1.52764e-09 7.73091 5.47488 0.417314 4.92879e-11 -1.65618e-10 1.52765e-09 2.90554 0.965183 0.102902 4.9303e-11 -1.65621e-10 1.52765e-09 10.2786 0.731801 0.0259123 4.92873e-11 -1.65618e-10 1.52766e-09 2.22167 -0.733487 -0.20892 3.08256e-15 5.43552e-18 -4.18442e-14 -71.5848 31.8584 13.5632 15.6638 -8.37857 -28.9661 0.00307372 1.58284 -0.222511 6.68036e-10 2.47272e-10 -1.17165e-09 1.15078e-09 4.30396e-10 -2.0306e-09 6.68034e-10 2.47273e-10 -1.17164e-09 -7.73091 5.47488 -0.417314 6.68037e-10 2.47273e-10 -1.17165e-09 -2.90554 0.965183 -0.102902 6.68033e-10 2.47272e-10 -1.17165e-09 -10.2786 0.731801 -0.0259123 6.68044e-10 2.47273e-10 -1.17166e-09 -2.22167 -0.733487 0.20892 -2.03217e-16 0.0 -3.88251e-19 150.512 -77.7614 150.523 -8.15239 84.0679 9.6147 -11.56 -33.879 -16.577 2.03217e-16 0.0 3.88251e-19 -171.186 -77.9222 -172.831 18.3536 86.9129 -19.1349 4.00533 -23.0023 7.00597
